<?xml version="1.0" encoding="utf-8"?>
<!-- Generator: Adobe Illustrator 22.0.1, SVG Export Plug-In . SVG Version: 6.00 Build 0)  -->
<svg version="1.1" id="Layer_1" xmlns="http://www.w3.org/2000/svg" xmlns:xlink="http://www.w3.org/1999/xlink" x="0px" y="0px"
	 viewBox="0 0 612 216" style="enable-background:new 0 0 612 216;" xml:space="preserve">
<style type="text/css">
	.st0{fill:#FFFFFF;}
	.st1{fill:#A41034;}
	.st2{fill:none;stroke:#000000;stroke-width:3.9179;stroke-linecap:square;}
	.st3{fill:#A41034;stroke:#000000;stroke-width:4.0578;}
	.st4{fill:#FFFFFF;stroke:#000000;stroke-width:0.5408;}
	.st5{fill:none;stroke:#000000;stroke-width:0.5408;}
</style>
<g>
	<path class="st0" d="M190.7,66h8.5v12.3h12.7V66h8.5v34.1h-8.5V85.8h-12.7v14.4h-8.5V66z"/>
	<path class="st0" d="M242.6,66h8.8l12.9,34.1h-9.2l-1.7-5.4h-12.6l-1.7,5.4H230L242.6,66z M251.3,88.5l-4.2-14.1H247l-4.2,14.1
		H251.3z"/>
	<path class="st0" d="M273.8,66h17.1c7.7,0,12.4,3.5,12.4,11.2c0,4.4-2.8,8-7,9.2l7.8,13.7h-9.5l-6.7-12.3h-5.4v12.3H274V66H273.8z
		 M282.3,81.6h7.8c2.7,0,4.6-1.4,4.6-4.6s-1.8-4.6-4.6-4.6h-7.8V81.6z"/>
	<path class="st0" d="M311.5,66h9.1l6.9,24.3h0.1l7.2-24.3h9L332,100.1h-9.1L311.5,66z"/>
	<path class="st0" d="M360.8,66h8.8l12.9,34.1h-9.2l-1.7-5.4H359l-1.7,5.4h-9.1L360.8,66z M369.6,88.5l-4.2-14.1h-0.1L361,88.5
		H369.6z"/>
	<path class="st0" d="M392,66h17.1c7.7,0,12.4,3.5,12.4,11.2c0,4.4-2.8,8-7,9.2l7.8,13.7h-9.5L406,87.9h-5.4v12.3H392V66z
		 M400.6,81.6h7.8c2.7,0,4.5-1.4,4.5-4.6s-1.8-4.6-4.5-4.6h-7.8V81.6z"/>
	<path class="st0" d="M432.5,66h13.2c10.4,0,17.4,4.9,17.4,17.1c0,12.1-7,17.1-17.4,17.1h-13.2V66z M441,93h4.9
		c6.4,0,8.7-4.4,8.7-9.9s-2.3-9.9-8.7-9.9H441V93z"/>
</g>
<rect x="158.1" y="23.1" class="st1" width="3.8" height="118.7"/>
<g>
	<path class="st0" d="M190.8,116.8h12c5,0,8.3,1.7,8.3,6.3c0,3.1-1.8,4.8-5.1,5.5v0.1c3.3,0.2,6,2,6,5.6c0,5.1-3.8,7-10,7h-11.2
		V116.8z M196.7,126.4h5.1c2,0,3.2-0.8,3.2-2.6c0-2.1-1.2-2.5-3.2-2.5h-5.1V126.4z M196.7,136.8h5c3.2,0,4.1-1.3,4.1-2.9
		c0-2-0.8-2.9-3-2.9h-6.1V136.8z"/>
	<path class="st0" d="M241.7,132.8c0,6.7-5.7,9.2-10.4,9.2s-10.4-2.5-10.4-9.2v-16h6.1v15.5c0,2.8,1.1,4.8,4.2,4.8
		c3.2,0,4.3-2,4.3-4.8v-15.5h6.1L241.7,132.8L241.7,132.8z"/>
	<path class="st0" d="M254.1,134c2.1,1.9,4.2,3.1,7.1,3.1c1.6,0,4.6-0.7,4.6-2.8c0-1.2-0.9-1.9-2.8-2.2l-5.1-0.8
		c-4.6-0.7-7-3.1-7-6.8c0-5.9,4.8-8.4,10-8.4c4.1,0,8.1,1.7,10.8,4.7l-4.7,3.3c-1.6-2-4-3.1-6.6-3.1c-1.4,0-3.5,0.9-3.5,2.5
		c0,1.3,1.1,2,3.4,2.3l2.3,0.4c4.9,0.8,8.9,2.3,8.9,7c0,7.4-6.7,8.8-11.2,8.8c-4.2,0-7.7-1.3-11.1-5L254.1,134z"/>
	<path class="st0" d="M280.6,116.8h6.1v24.5h-6.1V116.8z"/>
	<path class="st0" d="M296.8,116.8h6.2l8.9,15.7h0.1v-15.7h5.6v24.5h-6.1l-9-15.4h-0.1v15.4h-5.6V116.8z"/>
	<path class="st0" d="M327.6,141.3v-24.5h18.1v4.8h-11.9v4.5h11.1v4.8h-11.1v5.8h13v4.8h-19.2V141.3z"/>
	<path class="st0" d="M357.6,134c2.1,1.9,4.2,3.1,7.1,3.1c1.6,0,4.6-0.7,4.6-2.8c0-1.2-0.9-1.9-2.8-2.2l-5.1-0.8
		c-4.5-0.7-7-3.1-7-6.8c0-5.9,4.8-8.4,10-8.4c4.1,0,8.1,1.7,10.8,4.7l-4.7,3.3c-1.6-2-4-3.1-6.6-3.1c-1.4,0-3.5,0.9-3.5,2.5
		c0,1.3,1.1,2,3.4,2.3l2.3,0.4c4.9,0.8,8.9,2.3,8.9,7c0,7.4-6.7,8.8-11.2,8.8c-4.2,0-7.7-1.3-11.1-5L357.6,134z"/>
	<path class="st0" d="M386.4,134c2.1,1.9,4.2,3.1,7.1,3.1c1.6,0,4.6-0.7,4.6-2.8c0-1.2-0.9-1.9-2.8-2.2l-5.1-0.8
		c-4.6-0.7-7-3.1-7-6.8c0-5.9,4.8-8.4,10-8.4c4.1,0,8.1,1.7,10.8,4.7l-4.7,3.3c-1.6-2-4-3.1-6.6-3.1c-1.4,0-3.5,0.9-3.5,2.5
		c0,1.3,1.1,2,3.4,2.3l2.3,0.4c4.9,0.8,8.9,2.3,8.9,7c0,7.4-6.7,8.8-11.2,8.8c-4.2,0-7.7-1.3-11.1-5L386.4,134z"/>
	<path class="st0" d="M426.5,134c2.1,1.9,4.2,3.1,7.1,3.1c1.6,0,4.6-0.7,4.6-2.8c0-1.2-0.9-1.9-2.8-2.2l-5.1-0.8
		c-4.5-0.7-7-3.1-7-6.8c0-5.9,4.8-8.4,10-8.4c4.1,0,8.1,1.7,10.8,4.7l-4.7,3.3c-1.6-2-4-3.1-6.6-3.1c-1.4,0-3.5,0.9-3.5,2.5
		c0,1.3,1.1,2,3.4,2.3l2.3,0.4c4.9,0.8,8.9,2.3,8.9,7c0,7.4-6.7,8.8-11.2,8.8c-4.2,0-7.7-1.3-11.1-5L426.5,134z"/>
	<path class="st0" d="M469.2,124.9c-0.9-2.3-3-3.7-5.1-3.7c-3.4,0-6.1,2.3-6.1,7.8c0,3.6,1.4,7.8,6.3,7.8c1.7,0,4.1-1.2,5-3.5
		l4.9,2.3c-2.1,3.8-5.8,6.3-9.9,6.3c-7.8,0-12.4-6.1-12.4-13c0-6.9,4.3-13,11.9-13c4.8,0,8,2.3,10.3,6.4L469.2,124.9z"/>
	<path class="st0" d="M482.6,116.8h6.1v8.8h9.1v-8.8h6.1v24.5h-6.1V131h-9.1v10.3h-6.1V116.8z"/>
	<path class="st0" d="M525.4,142c-7.8,0-12.4-6.1-12.4-13c0-6.9,4.6-13,12.4-13c7.8,0,12.4,6.1,12.4,13
		C537.8,135.9,533.2,142,525.4,142z M525.4,121.2c-3.6,0-6.3,2.3-6.3,7.8c0,3.6,1.4,7.8,6.3,7.8c4.6,0,6.3-4,6.3-7.8
		C531.6,125.2,529.9,121.2,525.4,121.2z"/>
	<path class="st0" d="M558,142c-7.8,0-12.4-6.1-12.4-13c0-6.9,4.6-13,12.4-13c7.8,0,12.4,6.1,12.4,13C570.5,135.9,565.9,142,558,142
		z M558,121.2c-3.6,0-6.3,2.3-6.3,7.8c0,3.6,1.4,7.8,6.3,7.8c4.6,0,6.3-4,6.3-7.8S562.6,121.2,558,121.2z"/>
	<path class="st0" d="M579.4,116.8h6.1v19.4h9.6v5.2h-15.7L579.4,116.8L579.4,116.8z"/>
</g>
<g>
	<path class="st0" d="M127.4,94.7c0,42-22.6,74.7-54.3,94.9c-31.7-20.2-54.3-52.8-54.3-94.9L127.4,94.7L127.4,94.7z"/>
	<path class="st2" d="M94.5,94.7h32.9c0,42.7-22.6,74.9-54.3,95.1c-31.7-20.2-54.3-52.4-54.3-95.1h32"/>
	<path d="M127.4,94c0,1.1-0.1,0.2-0.1,0.7c-0.8-0.4-1.7,0-2.7,0c-3.5,0-5.8,3.1-5.8,6.3c0,0.7,0.1,1.8,0.3,2.4
		c-0.7-0.3-1.6-0.6-2.4-0.6c-3.2,0-5.8,2.6-5.8,5.8c0,1.1,0.3,2.1,0.8,3c-0.9-0.5-1.9-0.9-3-0.9c-3.7,0-5.8,3-5.8,6.5
		c0,1.1,0.1,1.2,0.6,2.1c-0.9-0.6-1.8-0.8-2.9-0.8c-3.2,0-5.8,3.3-5.8,6.5c0,1,0.1,1.3,0.5,2.1c-0.8-0.4-1.6-0.4-2.5-0.4
		c-3.2,0-5.8,2.9-5.8,6.1c0,3.2,2.6,5.8,5.8,5.8c0.9,0,1.8-0.2,2.5-0.6c-0.4,0.8-0.5,1.4-0.5,2.4c0,3.2,2.6,5.8,5.8,5.8
		c1,0,1.8,0,2.6-0.4c-0.7,0.9-0.4,1.8-0.4,2.9c0,3.2,3.1,5.4,6.3,5.4c0.4,0,0.8-0.3,1.2-0.4c-4.7,7-10.6,14.2-16.7,20
		c1.2-1.1,2.7-2.7,2.7-4.5c0-3.3-2.7-6-6-6c-1.6,0-2.6,0.1-3.7,1.1c0.8-1,1.3-2.3,1.3-3.7c0-3.2-2.6-5.8-5.8-5.8
		c-1.4,0-2.7,0.5-3.7,1.3c0.6-0.9,1-2.1,1-3.3c0-3-1.2-5.9-6.3-5.9c-3,0-5.2,2.8-5.2,5.8c0,1.2,0.4,2.4,1,3.3
		c-1-0.8-2.3-1.3-3.7-1.3c-3.2,0-5.8,2.6-5.8,5.8c0,1.4,0.5,2.7,1.3,3.7c-1.1-1-2.5-1.6-4.1-1.6c-3.3,0-6,2.7-6,6c0,1.7,0.9,4,2,5.1
		c-6.1-5.8-11.6-12.3-16.2-19.3c0.4,0.1,1.2,0.2,1.6,0.2c3.2,0,5.8-2.6,5.8-5.8c0-1.1-0.3-2.1-0.8-2.9c0.8,0.5,1.8,0.7,2.8,0.7
		c3.2,0,5.8-2.6,5.8-5.8c0-1-0.2-1.9-0.7-2.7c0.8,0.4,1.6,0.6,2.5,0.6c3.2,0,5.8-2.6,5.8-5.8s-2.6-5.8-5.8-5.8
		c-0.9,0-1.8,0.3-2.6,0.7c0.4-0.8,0.6-1.7,0.6-2.6c0-3.2-2.6-5.8-5.8-5.8c-1.1,0-2.2,0.3-3.1,0.9c0.5-0.9,0.8-1.8,0.8-2.9
		c0-3.2-2.6-5.8-5.8-5.8c-1.1,0-2.2,0.3-3,0.9c0.5-0.9,0.8-1.9,0.8-3c0-3.2-2.6-5.8-5.8-5.8c-1,0-1.9,0.3-2.8,0.7
		c0.4-0.8,0.7-1.7,0.7-2.7c0-3.2-2.6-6.8-5.8-6.8c-0.9,0-1.9-0.4-2.7,0c0-1.5-0.1,1.1-0.1-0.7h33.5c-0.8,1.7-1.4,2.4-1.4,3.8
		c0,3.2,2.6,5.8,5.8,5.8c1.2,0,2.3-0.4,3.2-1c-0.6,0.9-0.9,2-0.9,3.1c0,3.2,2.6,5.8,5.8,5.8c1.3,0,2.5-0.4,3.4-1.1
		c-0.6,0.9-1,2-1,3.2c0,3.2,2.6,5.8,5.8,5.8c3.2,0,5.8-2.6,5.8-5.8c0-1.2-0.3-2.2-0.9-3.1c0.9,0.5,1.9,0.8,2.9,0.8
		c3.2,0,5.8-2.6,5.8-5.8c0-0.9-0.2-1.7-0.5-2.5c0.9,0.6,1.6,0.6,2.8,0.6c3.2,0,5.5-2.6,5.5-5.8c0-1.4-0.7-2.1-1.5-3.8h34.5V94z"/>
	<path class="st0" d="M69.5,128.9c0.3-0.5,0.6-1,0.8-1.7c0.2-0.7,0.1-0.9-0.5-0.9c-0.7,0-0.7,0-1.1,0c-0.5,0-0.5,0.5-0.3,1
		s0.5,1,0.5,1.5C69,129.1,69.1,129.4,69.5,128.9"/>
	<path class="st0" d="M76.3,128.9c-0.3-0.5-0.6-1-0.7-1.7c-0.2-0.7-0.1-0.9,0.5-0.9s0.6,0,1,0s0.5,0.5,0.3,1s-0.4,1-0.5,1.5
		C76.8,129.1,76.7,129.4,76.3,128.9"/>
	<path class="st0" d="M73.1,140c0.6,0,0.9-0.1,1.2-0.2c0.3-0.2,0.7-0.2,0.3-1.3c-0.4-1.1-0.7-2.3-0.7-3.2s0-1,0-1.4
		c0.1-0.7,0.6-0.8,0.7,0s0.5,2.9,1.1,4s1.4,0.6,1.6,0.4c0.2-0.2,0.9-0.8,1.1-1.2s0.3-0.7-0.2-1.2c-0.7-0.7-1.7-2-2.1-2.9
		c-0.5-0.9-0.1-1.4,0.6-0.4c0.6,0.9,1.5,1.8,2.2,2.4c0.4,0.3,0.6,0.4,0.9,0s0.9-1.4,0.7-2.4c-0.2-1-0.6-1.2-1-1.2
		c-0.6,0-1.8,0-2.6-0.7c-1.1-1-1.7-2-2.2-4.6c-0.3-1.3-0.9-1.7-1.5-1.7c-0.7,0-1.3,0.4-1.5,1.7c-0.5,2.6-1.4,3.9-2.5,4.9
		c-0.8,0.7-1.9,0.7-2.3,0.7s-0.8,0-0.9,0.9s0.4,1.9,0.7,2.4c0.3,0.4,0.5,0.3,0.9,0c0.7-0.6,1.5-1.5,2.2-2.4s1-0.5,0.6,0.4
		c-0.5,0.9-1.4,2.2-2.1,2.9c-0.5,0.5-0.4,0.8-0.2,1.2c0.2,0.4,0.9,1,1.1,1.2s1.1,0.7,1.6-0.4c0.6-1.1,1-3.1,1.1-4
		c0.1-0.8,0.6-0.7,0.7,0c0,0.3,0,0.5,0,1.4s-0.3,2.1-0.7,3.2c-0.4,1.1,0,1.2,0.3,1.3C72.1,139.9,72.5,140,73.1,140L73.1,140z"/>
	<path class="st0" d="M47,107.5c0.3-0.5,0.6-1,0.8-1.7s0.1-0.9-0.5-0.9c-0.7,0-0.7,0-1.1,0c-0.5,0-0.5,0.5-0.3,1s0.5,1,0.5,1.5
		C46.5,107.8,46.6,108,47,107.5"/>
	<path class="st0" d="M53.9,107.5c-0.3-0.5-0.6-1-0.7-1.7c-0.2-0.7-0.1-0.9,0.5-0.9s0.6,0,1,0s0.5,0.5,0.3,1s-0.4,1-0.5,1.5
		C54.4,107.8,54.3,108,53.9,107.5"/>
	<path class="st0" d="M50.6,118.6c0.6,0,0.9-0.1,1.2-0.3c0.3-0.2,0.7-0.2,0.3-1.3c-0.4-1.1-0.7-2.3-0.7-3.2c0-0.9,0-1,0-1.4
		c0.1-0.7,0.6-0.8,0.7,0c0.1,0.8,0.5,2.9,1.1,4s1.4,0.6,1.6,0.4c0.2-0.2,0.9-0.8,1.1-1.2c0.2-0.4,0.3-0.7-0.2-1.2
		c-0.7-0.7-1.7-2-2.1-2.9c-0.5-0.9-0.1-1.4,0.6-0.4c0.6,0.9,1.5,1.8,2.2,2.4c0.4,0.3,0.6,0.4,0.9,0c0.3-0.4,0.9-1.4,0.7-2.4
		s-0.6-1.2-1-1.2c-0.6,0-1.8,0-2.6-0.7c-1.1-1-1.7-2-2.2-4.6c-0.3-1.3-0.9-1.7-1.5-1.7c-0.7,0-1.3,0.4-1.5,1.7
		c-0.5,2.6-1.5,3.9-2.5,4.9c-0.8,0.7-1.9,0.7-2.3,0.7c-0.4,0-0.8,0-0.9,0.9c-0.2,1,0.4,1.9,0.7,2.4c0.3,0.4,0.5,0.3,0.9,0
		c0.7-0.6,1.5-1.5,2.2-2.4s1-0.5,0.6,0.4c-0.5,0.9-1.4,2.2-2.1,2.9c-0.5,0.5-0.4,0.8-0.2,1.2c0.2,0.4,0.9,1,1.1,1.2
		c0.2,0.2,1.1,0.7,1.6-0.4c0.6-1.1,1-3.1,1.1-4c0.1-0.8,0.6-0.7,0.7,0c0,0.3,0,0.5,0,1.4s-0.3,2.1-0.7,3.2s0,1.2,0.3,1.3
		C49.7,118.5,50,118.6,50.6,118.6L50.6,118.6z"/>
	<path class="st0" d="M91.8,107.2c0.3-0.5,0.6-1,0.8-1.7c0.2-0.7,0.1-0.9-0.5-0.9c-0.7,0-0.7,0-1.1,0c-0.5,0-0.5,0.5-0.3,1
		s0.5,1,0.5,1.4C91.2,107.4,91.3,107.6,91.8,107.2"/>
	<path class="st0" d="M98.6,107.2c-0.3-0.5-0.6-1-0.7-1.7c-0.2-0.7-0.1-0.9,0.5-0.9s0.6,0,1,0s0.5,0.5,0.3,1s-0.4,1-0.5,1.4
		C99.1,107.4,99,107.6,98.6,107.2"/>
	<path class="st0" d="M95.3,118.2c0.6,0,0.9-0.1,1.2-0.2c0.3-0.2,0.7-0.2,0.3-1.3c-0.4-1.1-0.7-2.3-0.7-3.2c0-0.9,0-1,0-1.4
		c0.1-0.7,0.6-0.8,0.7,0s0.5,2.9,1.1,4s1.4,0.6,1.6,0.4s0.9-0.8,1.1-1.2c0.2-0.4,0.3-0.7-0.2-1.2c-0.7-0.7-1.7-2-2.1-2.9
		c-0.5-0.9-0.1-1.4,0.6-0.4c0.6,0.9,1.4,1.8,2.2,2.4c0.4,0.3,0.6,0.4,0.9,0s0.9-1.4,0.7-2.4c-0.2-1-0.6-1.2-1-1.2
		c-0.6,0-1.8,0-2.5-0.7c-1.1-1-1.7-2-2.2-4.6c-0.3-1.3-0.9-1.7-1.5-1.7c-0.7,0-1.3,0.4-1.5,1.7c-0.5,2.6-1.4,3.9-2.5,4.9
		c-0.8,0.7-1.9,0.7-2.3,0.7s-0.8,0-0.9,0.9c-0.2,1,0.4,1.9,0.7,2.4c0.3,0.4,0.5,0.3,0.9,0c0.7-0.6,1.5-1.5,2.2-2.4s1-0.5,0.6,0.4
		c-0.5,0.9-1.4,2.2-2.1,2.9c-0.5,0.5-0.4,0.8-0.2,1.2c0.2,0.4,0.9,1,1.1,1.2s1.1,0.7,1.6-0.4c0.6-1.1,1-3.1,1.1-4
		c0.1-0.8,0.6-0.7,0.7,0c0,0.3,0,0.5,0,1.4s-0.3,2.1-0.7,3.2c-0.4,1.1,0,1.2,0.3,1.3C94.4,118.1,94.7,118.2,95.3,118.2L95.3,118.2z"
		/>
	<path class="st0" d="M47.8,151.5c0.3-0.5,0.6-1,0.8-1.7s0.1-0.9-0.5-0.9s-0.7,0-1.1,0c-0.5,0-0.5,0.5-0.3,1s0.5,1,0.5,1.4
		S47.3,152,47.8,151.5"/>
	<path class="st0" d="M54.6,151.5c-0.3-0.5-0.6-1-0.7-1.7c-0.2-0.7-0.1-0.9,0.5-0.9s0.6,0,1,0s0.5,0.5,0.3,1s-0.4,1-0.5,1.4
		S55,152,54.6,151.5"/>
	<path class="st0" d="M51.3,162.6c0.6,0,0.9-0.1,1.2-0.2c0.3-0.2,0.7-0.2,0.3-1.3s-0.7-2.3-0.7-3.2s0-1,0-1.4c0.1-0.7,0.6-0.8,0.7,0
		c0.1,0.8,0.5,2.9,1.1,4s1.4,0.6,1.6,0.4c0.2-0.2,0.9-0.8,1.1-1.2c0.2-0.4,0.3-0.7-0.2-1.2c-0.7-0.7-1.7-2-2.1-2.9
		c-0.5-0.9-0.1-1.4,0.6-0.4c0.6,0.9,1.4,1.8,2.2,2.4c0.4,0.3,0.6,0.4,0.9,0c0.3-0.4,0.9-1.4,0.7-2.4s-0.6-1.2-1-1.2
		c-0.6,0-1.8,0-2.6-0.7c-1.1-1-1.7-2-2.2-4.6c-0.3-1.3-0.9-1.7-1.5-1.7c-0.7,0-1.3,0.4-1.5,1.7c-0.5,2.6-1.4,3.9-2.5,4.9
		c-0.8,0.7-1.9,0.7-2.3,0.7c-0.4,0-0.8,0-0.9,0.9c-0.2,1,0.4,1.9,0.7,2.4c0.3,0.4,0.5,0.3,0.9,0c0.7-0.6,1.5-1.5,2.2-2.4
		s1-0.5,0.6,0.4c-0.5,0.9-1.4,2.2-2.1,2.9c-0.5,0.5-0.4,0.8-0.2,1.2s0.8,1,1.1,1.2c0.2,0.2,1.1,0.7,1.6-0.4c0.6-1.1,1-3.1,1.1-4
		c0.1-0.8,0.6-0.7,0.7,0c0,0.3,0,0.5,0,1.4s-0.3,2.1-0.7,3.2c-0.4,1.1,0,1.2,0.3,1.3C50.4,162.5,50.7,162.6,51.3,162.6L51.3,162.6z"
		/>
	<path class="st0" d="M91.4,151.1c0.3-0.5,0.6-1,0.8-1.7c0.2-0.7,0.1-0.9-0.5-0.9s-0.7,0-1.1,0c-0.5,0-0.5,0.5-0.3,1s0.5,1,0.5,1.5
		C90.9,151.4,91,151.6,91.4,151.1"/>
	<path class="st0" d="M98.2,151.1c-0.3-0.5-0.6-1-0.7-1.7c-0.2-0.7-0.1-0.9,0.5-0.9s0.6,0,1,0s0.5,0.5,0.3,1s-0.4,1-0.5,1.5
		C98.7,151.4,98.6,151.6,98.2,151.1"/>
	<path class="st0" d="M94.9,162.2c0.6,0,0.9-0.1,1.2-0.2c0.3-0.2,0.7-0.2,0.3-1.3c-0.4-1.1-0.7-2.3-0.7-3.2s0-1,0-1.4
		c0.1-0.7,0.6-0.8,0.7,0s0.5,2.9,1.1,4s1.4,0.6,1.6,0.4c0.2-0.2,0.9-0.8,1.1-1.2s0.3-0.7-0.2-1.2c-0.7-0.7-1.7-2-2.1-2.9
		c-0.5-0.9-0.1-1.4,0.6-0.4c0.6,0.9,1.4,1.8,2.2,2.4c0.4,0.3,0.6,0.4,0.9,0s0.9-1.4,0.7-2.4c-0.2-1-0.6-1.2-1-1.2
		c-0.6,0-1.8,0-2.6-0.7c-1.1-1-1.7-2-2.2-4.6c-0.3-1.3-0.9-1.7-1.5-1.7c-0.7,0-1.3,0.4-1.5,1.7c-0.5,2.7-1.5,3.9-2.5,4.9
		c-0.8,0.7-1.9,0.8-2.3,0.7c-0.4,0-0.8,0-0.9,0.9c-0.2,1,0.4,1.9,0.7,2.4c0.3,0.4,0.5,0.3,0.9,0c0.7-0.6,1.5-1.5,2.2-2.4
		s1-0.5,0.6,0.4c-0.5,0.9-1.4,2.2-2.1,2.9c-0.5,0.5-0.4,0.8-0.2,1.2c0.2,0.4,0.9,1,1.1,1.2s1.1,0.7,1.6-0.4c0.6-1.1,1-3.1,1.1-4
		c0.1-0.8,0.6-0.7,0.7,0c0,0.3,0,0.5,0,1.4s-0.3,2.1-0.7,3.2c-0.4,1.1,0,1.2,0.3,1.3C94,162.1,94.3,162.2,94.9,162.2L94.9,162.2z"/>
	<polygon class="st3" points="18.7,60.7 127.4,60.7 127.4,94.6 18.7,94.6 	"/>
	<path class="st4" d="M39.3,70.7c0-2,1.6-3.6,3.6-3.6h9v3.5h1.5c0.6,0,1.2,0.5,1.2,1.2c0,0.6-0.5,1.2-1.2,1.2h-1.5v8h1.5
		c0.6,0,1.2,0.5,1.2,1.2c0,0.6-0.5,1.2-1.2,1.2h-1.5v3.8H41c-0.3,0.6-1,1.1-1.7,1.1c-0.8,0-1.4-0.4-1.7-1.1H26.7v-3.8h-1.5
		c-0.7,0-1.2-0.5-1.2-1.2c0-0.6,0.5-1.2,1.2-1.2h1.5v-8.1h-1.5c-0.7,0-1.2-0.5-1.2-1.2c0-0.6,0.5-1.2,1.2-1.2h1.5V67h9
		C37.7,67.1,39.3,68.7,39.3,70.7L39.3,70.7z"/>
	<line class="st5" x1="39.3" y1="70.7" x2="39.3" y2="84.4"/>
	<path d="M43.2,74.8c0,0.4,0.1,0.4,0.5,0.4s0.4,0,0.6-0.3c0.2-0.3,0.7-0.9,0.7,0v1.2c0,0.9-0.7,0.3-0.8,0s-0.2-0.3-0.6-0.3
		c-0.4,0-0.5,0-0.5,0.4c-0.1,1.2-0.1,2.4,0,3c0,0.2,0.1,0.4,0.4,0.4h0.7c1.1,0,1.3-0.6,1.5-1.4c0.3-1.1,0.7-0.9,0.7,0
		c0,0.5,0,1.1,0,1.6s-0.5,0.3-0.8,0.3h-3.4c-0.3,0-0.5,0-0.8,0s-0.4-0.2-0.2-0.4c0.2-0.2,0.3-0.2,0.3-0.9v-6.2
		c0-0.7-0.1-0.7-0.3-0.9c-0.2-0.2-0.1-0.4,0.2-0.4s0.5,0,0.8,0h3.2c0.3,0,0.8-0.3,0.8,0.3c0,0.5,0,1.1,0,1.6s-0.5,0.7-0.7,0
		s-0.2-1.4-1.3-1.4h-0.7c-0.3,0-0.4,0.1-0.4,0.4C43.1,73.3,43.2,74.2,43.2,74.8L43.2,74.8z"/>
	<line class="st5" x1="28.7" y1="85.6" x2="30.7" y2="83.8"/>
	<path class="st5" d="M41,87.1c0.1-0.2,0.2-0.5,0.2-0.8c0-1.1-0.9-1.9-1.9-1.9c-1.1,0-1.9,0.9-1.9,1.9c0,0.3,0.1,0.6,0.2,0.8"/>
	<path class="st5" d="M39,84.4c-0.2-0.4-0.8-0.6-1.7-0.6h-6.6V67.2h-0.5l-1.5,1.6v16.8h8.9"/>
	<path class="st5" d="M39.6,84.4c0.2-0.4,0.8-0.6,1.7-0.6h6.6V67.2h0.5l1.5,1.6v16.8H41"/>
	<line class="st5" x1="49.9" y1="85.6" x2="47.9" y2="83.8"/>
	<path d="M35.4,79.4c-0.1,0.6-0.4,0.9-0.7,0.9c-0.4,0-0.5-0.4-0.6-1l-1.6-6.8C32.3,72,32.3,72,32,71.8c-0.2-0.2-0.2-0.4,0.1-0.4
		s0.5,0,0.8,0s0.5,0,0.8,0s0.4,0.2,0.3,0.4c-0.2,0.2-0.2,0.2-0.1,0.9l0.9,4.3c0.1,0.7,0.5,0.5,0.6,0l1.3-4.3
		c0.1-0.7-0.1-0.7-0.2-0.9c-0.1-0.2,0-0.4,0.2-0.4c0.3,0,0.4,0,0.6,0c0.3,0,0.4,0,0.6,0c0.3,0,0.3,0.3,0.1,0.5s-0.3,0.2-0.5,0.8
		L35.4,79.4L35.4,79.4z"/>
	<path class="st4" d="M72.2,88.2c0.8,0,1.4-0.4,1.7-1.1h9.7v-3.8h1.5c0.7,0,1.2-0.5,1.2-1.2c0-0.6-0.5-1.2-1.2-1.2h-1.5v-8.1h1.5
		c0.7,0,1.2-0.5,1.2-1.2c0-0.6-0.5-1.2-1.2-1.2h-1.5v-3.5h-7.8c-2,0-3.6,1.6-3.6,3.6c0-2-1.6-3.6-3.6-3.6h-9v3.5h-1.5
		c-0.7,0-1.2,0.5-1.2,1.2c0,0.6,0.5,1.2,1.2,1.2h1.5V81h-1.5c-0.7,0-1.2,0.5-1.2,1.2c0,0.6,0.5,1.2,1.2,1.2h1.5v3.8h10.9
		C70.8,87.8,71.5,88.2,72.2,88.2L72.2,88.2z"/>
	<path class="st5" d="M73.9,87.1c0.1-0.2,0.2-0.5,0.2-0.8c0-1.1-0.9-1.9-1.9-1.9c-1.1,0-1.9,0.9-1.9,1.9c0,0.3,0.1,0.6,0.2,0.8"/>
	<path class="st5" d="M71.9,84.4c-0.2-0.4-0.8-0.6-1.7-0.6h-6.6V67.2h-0.5l-1.5,1.6v16.8h8.9"/>
	<line class="st5" x1="61.6" y1="85.6" x2="63.6" y2="83.8"/>
	<line class="st5" x1="72.2" y1="70.7" x2="72.2" y2="84.4"/>
	<path class="st5" d="M72.5,84.4c0.2-0.4,0.8-0.6,1.7-0.6h5.4V67.2h0.5l1.5,1.6v16.8H74"/>
	<line class="st5" x1="81.7" y1="85.6" x2="79.7" y2="83.8"/>
	<path d="M66.2,80.2c-0.3,0-0.6,0-0.9,0S65,80,65.1,79.8c0.2-0.2,0.4-0.2,0.4-0.9c0-0.7,0-6.2,0-6.5s0-0.4-0.3-0.6
		c-0.2-0.2,0.1-0.4,0.4-0.4c0.4,0,1.4,0,2,0c2.3,0,3.1,0.8,3.1,2.1c0,1-0.6,1.7-1.4,2c-0.2,0.1-0.3,0.2-0.3,0.3c0,0.1,0,0.2,0.1,0.3
		c0.1,0.2,1.5,2.9,1.7,3.2c0.2,0.3,0.3,0.4,0.4,0.5s0.1,0.4-0.4,0.4c-0.2,0-1.2,0-1.2,0s-0.1,0-0.2-0.2s-1.8-3.8-2-4L67,75.9v3
		c0,0.7,0.2,0.7,0.4,0.8c0.2,0.2,0.1,0.5-0.2,0.5C66.8,80.2,66.5,80.2,66.2,80.2L66.2,80.2z M67,73.6v1.3c0,0.2,0.2,0.4,0.6,0.4
		c0.5,0,1.5-0.3,1.5-1.7c0-1.4-0.7-1.7-1.2-1.7c-0.4-0.1-0.9,0-0.9,0.7V73.6L67,73.6z"/>
	<path d="M77.1,79c0,0.7,0.1,0.7,0.3,0.9c0.2,0.2,0.2,0.4-0.2,0.4c-0.3,0-0.5,0-0.8,0s-0.5,0-0.8,0s-0.4-0.2-0.2-0.4
		c0.2-0.2,0.3-0.2,0.3-0.9v-6.2c0-0.7-0.1-0.7-0.3-0.9c-0.2-0.2-0.2-0.4,0.2-0.4c0.3,0,0.5,0,0.8,0s0.5,0,0.8,0s0.4,0.2,0.2,0.4
		c-0.2,0.2-0.3,0.2-0.3,0.9V79L77.1,79z"/>
	<path class="st4" d="M105.2,69.7c0.4-1.5,1.8-2.7,3.5-2.7h10.6v3.5h1.5c0.7,0,1.2,0.5,1.2,1.2c0,0.6-0.5,1.2-1.2,1.2h-1.5V81h1.5
		c0.7,0,1.2,0.5,1.2,1.2c0,0.6-0.5,1.2-1.2,1.2h-1.5v3.8h-12.5c-0.3,0.6-1,1.1-1.7,1.1c-0.8,0-1.4-0.4-1.7-1.1H91.5v-3.8H90
		c-0.6,0-1.2-0.5-1.2-1.2c0-0.6,0.5-1.2,1.2-1.2h1.5v-8.1H90c-0.6,0-1.2-0.5-1.2-1.2c0-0.6,0.5-1.2,1.2-1.2h1.5V67h10
		c1.7,0,3.1,1.1,3.5,2.7L105.2,69.7L105.2,69.7z"/>
	<line class="st5" x1="93.4" y1="85.6" x2="95.4" y2="83.8"/>
	<path class="st5" d="M106.8,87.1c0.1-0.2,0.2-0.5,0.2-0.8c0-1.1-0.9-1.9-1.9-1.9c-1.1,0-1.9,0.9-1.9,1.9c0,0.3,0.1,0.6,0.2,0.8"/>
	<path class="st5" d="M104.8,84.4c-0.2-0.4-0.8-0.6-1.7-0.6h-7.7V67.2h-0.5l-1.5,1.6v16.8h9.9"/>
	<path class="st5" d="M105.4,84.4c0.2-0.4,0.8-0.6,1.7-0.6h8.2V67.2h0.5l1.5,1.6v16.8h-10.5"/>
	<line class="st5" x1="117.3" y1="85.6" x2="115.3" y2="83.8"/>
	<path d="M106,77.7l0.3,1.2c0.1,0.7,0.1,0.7-0.1,0.9c-0.2,0.2-0.1,0.4,0.3,0.4c0.3,0,0.5,0,0.9,0c0.3,0,0.4,0,0.7,0
		c0.3,0,0.3-0.4,0.1-0.5c-0.2-0.2-0.2-0.3-0.4-0.8l-1.9-6.8c-0.2-0.6-0.4-0.9-0.5-0.9c-0.4,0.1-0.9,0.2-0.9,0.5v0.7l-1.9,6.5
		c-0.3,0.7-0.3,0.7-0.5,0.8c-0.2,0.2-0.2,0.5,0.1,0.5c0.3,0,0.4,0,0.6,0c0.3,0,0.4,0,0.6,0c0.3,0,0.3-0.2,0.2-0.4
		c-0.1-0.2-0.4-0.2-0.2-0.9l0.4-1.3c0.1-0.3,0.7-0.2,1.1-0.2C105.1,77.4,105.8,77.3,106,77.7L106,77.7z M104.5,74.5
		c0.3-1.1,0.5-1.1,0.7,0.1l0.4,1.8c0.2,0.4,0.1,0.5-0.7,0.5c-1.1,0-1.1-0.1-0.9-0.5L104.5,74.5L104.5,74.5z"/>
	<path d="M99.5,71.4c0.4,0,1,0,1.8-0.1c1.1-0.1,1.1,0,1.1,0.3c0,0.2,0,1.1,0,1.4c0,0.2,0,0.6-0.3,0.6c-0.2,0-0.3-0.3-0.5-0.6
		c-0.4-1.1-0.8-1.2-1.1-1.2c-0.3,0-0.4,0.2-0.4,0.8v6.2c0,0.7,0.1,0.7,0.3,0.9c0.2,0.2,0.2,0.5-0.2,0.5c-0.3,0-0.5,0-0.8,0
		s-0.5,0-0.8,0s-0.4-0.3-0.2-0.5c0.2-0.2,0.3-0.2,0.3-0.9v-6.2c0-0.6-0.1-0.8-0.4-0.8S97.6,72,97.2,73c-0.1,0.4-0.2,0.6-0.5,0.6
		c-0.2,0-0.3-0.4-0.3-0.6s0-1.2,0-1.4c0-0.3,0-0.4,1.1-0.3C98.5,71.4,99,71.4,99.5,71.4L99.5,71.4z"/>
	<path d="M109.1,78c0-0.8,0.5-0.7,0.8,0.1c0.3,0.8,0.6,1.7,1.7,1.7c1,0,1.2-1.2,1.2-1.8c0-0.9-0.4-1.2-1.8-2.3
		c-1.4-1-1.7-1.7-1.7-2.5s0.8-2.1,2.1-2.1c0.6,0,1,0.1,1.3,0.3c0,0,0.5,0.1,0.6-0.1s0.4,0,0.4,0.3c0,0.2,0,1.3,0,1.7
		c0,0.4-0.4,0.7-0.7,0c-0.3-0.8-0.4-1.8-1.4-1.8c-0.8,0-1,1-1,1.4c0,1.1,1.1,1.4,2.2,2.3c1.2,0.9,1.5,1.2,1.5,2.4
		c0,1.3-1.2,2.7-2.6,2.7c-0.6,0-1.1-0.3-1.6-0.3s-0.5,0.2-0.6,0.2c-0.2,0-0.4-0.1-0.3-0.5C109.1,79.4,109.1,78.5,109.1,78L109.1,78z
		"/>
</g>
</svg>
